<svg width="24" height="15" viewBox="0 0 24 15" fill="none" xmlns="http://www.w3.org/2000/svg">
<path d="M12.1234 10.6095C12.1234 8.86793 11.2737 7.58064 9.51813 7.09814C10.799 6.5035 11.467 5.60259 11.467 4.20127C11.467 1.43821 9.34799 0.764404 6.90315 0.764404H0.171875V14.6372H7.09166C9.68634 14.6372 12.1234 13.4281 12.1234 10.6095ZM3.30985 3.13261H6.25448C7.38651 3.13261 8.40543 3.44171 8.40543 4.71769C8.40543 5.89567 7.61272 6.36968 6.49133 6.36968H3.30985V3.13261ZM3.30888 12.2812V8.46083H6.72914C8.11058 8.46083 8.9845 9.0206 8.9845 10.4417C8.9845 11.843 7.94141 12.2812 6.66437 12.2812H3.30888Z" fill="white"/>
<path d="M18.3407 14.9C20.8097 14.9 22.4086 13.8191 23.1781 11.5216H20.6724C20.4027 12.3792 19.291 12.8325 18.4286 12.8325C16.7649 12.8325 15.891 11.8854 15.891 10.2758H23.3473C23.5832 7.05473 21.7426 4.30957 18.3397 4.30957C15.1892 4.30957 13.0508 6.61086 13.0508 9.62554C13.0508 12.7542 15.077 14.9 18.3407 14.9ZM18.2517 6.39412C19.6776 6.39412 20.395 7.20833 20.5148 8.53992H15.8949C15.9886 7.21964 16.8906 6.39412 18.2517 6.39412Z" fill="white"/>
<path d="M15.3164 1.49268H21.1051V2.85913H15.3164V1.49268Z" fill="white"/>
</svg>
