<svg width="10" height="16" viewBox="0 0 10 16" fill="none" xmlns="http://www.w3.org/2000/svg">
<path d="M3.06759 5.29446H3.56759V4.79446V3.50509C3.56759 2.79204 3.77072 2.03757 4.23583 1.4715C4.6872 0.922137 5.42539 0.500088 6.61243 0.5C6.61255 0.5 6.61268 0.5 6.6128 0.5L8.8335 0.503414V2.09392L7.37985 2.09442C7.37979 2.09442 7.37973 2.09442 7.37967 2.09442C6.70435 2.09446 6.22202 2.33729 5.92578 2.72845C5.64883 3.09414 5.58798 3.51983 5.58798 3.80527V4.79446V5.29446H6.08798H8.72325L8.72227 7.08894H6.08798H5.58798V7.58894V15.5H3.56759V7.58894V7.08894H3.06759H0.833496V5.29446H3.06759ZM8.96393 2.09388H8.96376H8.96393Z" fill="white" stroke="white"/>
</svg>
