<svg width="22" height="20" viewBox="0 0 22 20" fill="none" xmlns="http://www.w3.org/2000/svg">
<path d="M20.3034 14.4807V13.9807H20.3033V5.51928C20.3033 3.15561 18.2922 1.2745 15.8711 1.2745H6.46162C4.04068 1.2745 2.02973 3.15564 2.02973 5.51928V14.4807C2.02973 16.8445 4.04067 18.7256 6.46162 18.7255H15.8713C18.2923 18.7255 20.3034 16.8445 20.3034 14.4807ZM16.1833 4.08601L16.1851 4.08432C16.3424 3.93387 16.5699 3.84209 16.8046 3.84209C17.0409 3.84209 17.2684 3.93408 17.4253 4.08424L17.4271 4.08592C17.5839 4.23453 17.671 4.44003 17.671 4.64339C17.671 4.8449 17.5843 5.05081 17.4267 5.20123C17.2666 5.35277 17.0389 5.44468 16.8046 5.44468C16.5709 5.44468 16.3425 5.35233 16.1843 5.20169C16.0254 5.05037 15.9383 4.84401 15.9383 4.64339C15.9383 4.44112 16.0257 4.23535 16.1833 4.08601ZM6.46162 0.5H15.8711C18.814 0.5 21.1666 2.77488 21.1665 5.51926V14.4807C21.1665 17.2251 18.8139 19.5 15.8711 19.5H6.46162C3.51908 19.5 1.1665 17.2253 1.1665 14.4807V5.51928C1.1665 2.77485 3.51908 0.5 6.46162 0.5ZM6.25534 10.0002C6.25534 7.45741 8.43562 5.34674 11.1665 5.34674C13.8974 5.34674 16.0777 7.45741 16.0777 10.0002C16.0777 12.5429 13.8974 14.6535 11.1665 14.6535C8.43559 14.6535 6.25534 12.5429 6.25534 10.0002ZM7.11856 10.0001C7.11856 12.1621 8.95742 13.8789 11.1665 13.8789C13.3756 13.8789 15.2145 12.1621 15.2145 10.0001C15.2145 7.83805 13.3758 6.12112 11.1665 6.12112C8.95725 6.12112 7.11856 7.83805 7.11856 10.0001Z" fill="white" stroke="white"/>
</svg>
